<svg xmlns="http://www.w3.org/2000/svg" viewBox="0 0 24 16">
  <path fill="#012169" d="M0 0h24v16H0z"/>
  <path fill="#fff" d="M3 10.6 3.7 12l1.5.2-1.1 1.1.3 1.5L3 14.1l-1.4.7.3-1.5-1.1-1.1 1.5-.2zm15-7.9.5 1 .1-1.1.8.7-.5-1 1.1.1-.9-.6.9-.6-1.1.1.5-1-.8.7-.1-1.1-.5 1-.5-1-.1 1.1-.8-.7.5 1-1.1-.1.9.6-.9.6 1.1-.1-.5 1 .8-.7.1 1.1zM19 11l.6 1.2 1.3.2-1 .9.3 1.3-1.2-.6-1.2.6.3-1.3-1-.9 1.3-.2zM14.8 8.2l.4.8.9.1-.7.6.2.9-.8-.4-.8.4.2-.9-.7-.6.9-.1z"/>
  <path fill="#fff" d="M0 0h10v7H0z"/>
  <path fill="#012169" d="M0 0h10v7H0z"/>
  <path stroke="#fff" stroke-width="1.5" d="m0 0 10 7M10 0 0 7"/>
  <path stroke="#e4002b" stroke-width=".8" d="m0 0 10 7M10 0 0 7"/>
  <path fill="#fff" d="M4 0h2v7H4zM0 2.5h10v2H0z"/>
  <path fill="#e4002b" d="M4.4 0h1.2v7H4.4zM0 2.9h10v1.2H0z"/>
</svg>
